<svg xmlns="http://www.w3.org/2000/svg" version="1.1" xmlns:xlink="http://www.w3.org/1999/xlink" xmlns:svgjs="http://svgjs.com/svgjs" height="169.78668808074755" width="265.760009765625"><defs id="SvgjsDefs1606"></defs><g id="SvgjsG1607" rel="mainfill" name="main_text" xmlns:name="main_text" transform="translate(2.4300079345703125,-95.72332168487745)" fill="#ffffff"><path d="M17.08 227.41L17.08 214.92L48.46 214.92L48.46 227.41ZM17.08 202.33L17.08 189.65L48.46 189.65L48.46 202.33ZM54.75 240L60.95 233.80L60.95 214.92L54.75 208.62L60.95 202.33L60.95 183.45L54.75 177.07L4.50 177.07L4.50 240ZM81.63 208.62L81.63 202.33L94.13 189.65L113.01 189.65L113.01 208.62ZM81.63 240L81.63 221.21L113.01 221.21L113.01 240L125.50 240L125.50 177.07L87.84 177.07L69.05 196.04L69.05 240ZM190.95 240L190.95 177.07L178.46 177.07L178.46 218.96L147.08 177.07L134.50 177.07L134.50 240L147.08 240L147.08 198.02L178.46 240ZM212.53 240L212.53 214.92L231.32 214.92L243.91 227.41L243.91 240L256.40 240L256.40 221.21L243.91 208.62L256.40 196.04L256.40 177.07L243.91 177.07L243.91 189.74L231.32 202.33L212.53 202.33L212.53 177.07L199.94 177.07L199.94 240Z" fill="#ffffff" style="fill: rgb(255, 255, 255);"></path></g><g id="SvgjsG1608" rel="mainfill" name="slogan_text" xmlns:name="slogan_text" transform="translate(-1.8600000143051147,-70.5333192434712)" fill="#ffffff"><path d="M3.74 227.58L3.74 231.70L9.41 231.70L9.41 233.42L3.74 233.42L3.74 240L1.86 240L1.86 225.88L10.41 225.88L10.41 227.58L3.74 227.58ZM27.48 240L27.48 238.66Q26.66 239.38 25.84 239.85Q25.01 240.32 23.97 240.32Q22.44 240.32 21.61 239.38Q20.78 238.45 20.78 236.99Q20.78 235.89 21.21 235.16Q21.64 234.43 22.46 234.01Q23.29 233.58 24.85 233.40L27.48 233.16L27.48 232.64Q27.48 231.41 26.79 230.96Q26.10 230.51 24.89 230.51Q23.81 230.51 23.22 230.89Q22.63 231.27 22.38 231.70L20.94 230.83Q21.43 229.94 22.43 229.47Q23.44 228.99 24.93 228.99Q27.23 228.99 28.23 229.83Q29.23 230.66 29.23 232.72L29.23 240L27.48 240M27.48 234.57L25.77 234.74Q24.02 234.89 23.31 235.41Q22.59 235.94 22.59 236.95Q22.59 237.91 23.07 238.33Q23.55 238.74 24.51 238.74Q24.91 238.74 25.30 238.60Q25.68 238.45 26.06 238.23Q26.44 238.01 26.79 237.73Q27.14 237.45 27.48 237.18L27.48 234.57ZM48.30 237.11Q48.30 238.61 47.24 239.46Q46.17 240.32 44.22 240.32Q42.88 240.32 41.82 239.81Q40.76 239.31 40.27 238.39L41.67 237.53Q42.48 238.83 44.27 238.83Q45.43 238.83 46.01 238.38Q46.58 237.94 46.58 237.18Q46.58 236.73 46.38 236.45Q46.17 236.17 45.75 235.96Q45.32 235.76 43.99 235.40Q42.08 234.96 41.30 234.18Q40.52 233.41 40.52 232.12Q40.52 230.70 41.54 229.85Q42.56 228.99 44.37 228.99Q45.77 228.99 46.72 229.54Q47.66 230.09 48.10 230.87L46.70 231.73Q45.87 230.47 44.33 230.47Q43.45 230.47 42.84 230.86Q42.24 231.25 42.24 232.06Q42.24 232.79 42.77 233.11Q43.30 233.44 44.43 233.71Q46.25 234.18 46.94 234.59Q47.63 235.00 47.97 235.60Q48.30 236.19 48.30 237.11ZM64.80 240Q63.78 240.32 62.78 240.32Q61.14 240.32 60.44 239.46Q59.73 238.60 59.73 236.77L59.73 230.77L58.20 230.77L58.20 229.30L59.73 229.30L59.73 226.32L61.48 226.32L61.48 229.30L64.20 229.30L64.20 230.77L61.48 230.77L61.48 236.43Q61.48 237.72 61.74 238.29Q62.00 238.85 62.90 238.85Q63.68 238.85 64.34 238.56L64.80 240ZM95.33 240L95.33 238.66Q94.51 239.38 93.69 239.85Q92.86 240.32 91.82 240.32Q90.29 240.32 89.46 239.38Q88.63 238.45 88.63 236.99Q88.63 235.89 89.06 235.16Q89.49 234.43 90.32 234.01Q91.14 233.58 92.70 233.40L95.33 233.16L95.33 232.64Q95.33 231.41 94.64 230.96Q93.95 230.51 92.74 230.51Q91.66 230.51 91.07 230.89Q90.48 231.27 90.23 231.70L88.79 230.83Q89.28 229.94 90.28 229.47Q91.29 228.99 92.78 228.99Q95.09 228.99 96.09 229.83Q97.09 230.66 97.09 232.72L97.09 240L95.33 240M95.33 234.57L93.62 234.74Q91.87 234.89 91.16 235.41Q90.44 235.94 90.44 236.95Q90.44 237.91 90.92 238.33Q91.40 238.74 92.36 238.74Q92.76 238.74 93.15 238.60Q93.53 238.45 93.91 238.23Q94.29 238.01 94.64 237.73Q94.99 237.45 95.33 237.18L95.33 234.57ZM115.56 240L115.56 233.69Q115.56 232.16 115.40 231.65Q115.25 231.14 114.90 230.91Q114.56 230.68 113.89 230.68Q113.22 230.68 112.32 231.19Q111.42 231.70 110.59 232.44L110.59 240L108.83 240L108.83 229.30L110.59 229.30L110.59 230.89Q111.33 230.14 112.32 229.57Q113.31 228.99 114.31 228.99Q115.86 228.99 116.59 229.87Q117.31 230.76 117.31 232.86L117.31 240L115.56 240ZM135.80 240L135.80 238.94Q135.20 239.52 134.35 239.92Q133.51 240.32 132.55 240.32Q130.62 240.32 129.57 238.86Q128.52 237.41 128.52 234.74Q128.52 232.11 129.66 230.55Q130.80 228.99 132.82 228.99Q134.44 228.99 135.80 230.17L135.80 224.81L137.57 224.81L137.57 240L135.80 240M135.80 231.70Q134.40 230.55 133.05 230.55Q131.85 230.55 131.09 231.56Q130.33 232.56 130.33 234.69Q130.33 238.74 132.88 238.74Q133.72 238.74 134.48 238.33Q135.24 237.91 135.80 237.37L135.80 231.70ZM173.01 236.13Q173.01 238.11 171.71 239.20Q170.40 240.30 167.90 240.30Q166.00 240.30 164.72 239.62Q163.45 238.95 162.64 237.53L164.17 236.51Q165.36 238.62 167.86 238.62Q169.36 238.62 170.23 238.00Q171.09 237.37 171.09 236.28Q171.09 235.65 170.81 235.22Q170.54 234.80 170.09 234.51Q169.64 234.21 169.06 234.04Q168.48 233.86 167.84 233.69Q166.80 233.44 165.91 233.17Q165.01 232.90 164.35 232.47Q163.69 232.04 163.31 231.37Q162.94 230.70 162.94 229.65Q162.94 227.78 164.14 226.68Q165.35 225.58 167.76 225.58Q169.68 225.58 170.82 226.29Q171.97 227.00 172.63 228.11L171.13 229.17Q170.58 228.26 169.79 227.76Q169.00 227.26 167.76 227.26Q166.38 227.26 165.62 227.86Q164.85 228.47 164.85 229.49Q164.85 230.03 165.08 230.40Q165.31 230.77 165.74 231.02Q166.17 231.27 166.81 231.44Q167.45 231.62 168.26 231.83Q169.22 232.08 170.09 232.36Q170.96 232.64 171.60 233.10Q172.25 233.56 172.63 234.29Q173.01 235.01 173.01 236.13ZM185.55 234.86Q185.55 236.98 186.27 237.88Q187.00 238.79 188.60 238.79Q189.31 238.79 189.85 238.48Q190.40 238.18 190.90 237.51L192.34 238.41Q191.73 239.33 190.85 239.82Q189.98 240.32 188.48 240.32Q186.09 240.32 184.91 238.93Q183.73 237.54 183.73 234.74Q183.73 231.80 184.88 230.39Q186.03 228.99 188.34 228.99Q190.43 228.99 191.47 230.19Q192.51 231.39 192.51 233.88L192.51 234.86L185.55 234.86M190.79 233.48Q190.77 232.04 190.19 231.25Q189.60 230.45 188.28 230.45Q187.03 230.45 186.40 231.17Q185.77 231.89 185.57 233.48L190.79 233.48ZM211.70 238.35Q211.20 239.20 210.31 239.76Q209.43 240.32 207.87 240.32Q205.51 240.32 204.31 238.89Q203.12 237.47 203.12 234.67Q203.12 231.88 204.30 230.43Q205.49 228.99 207.79 228.99Q210.44 228.99 211.56 230.95L210.12 231.83Q209.72 231.20 209.19 230.86Q208.65 230.51 207.77 230.51Q206.23 230.51 205.58 231.63Q204.94 232.75 204.94 234.71Q204.94 236.21 205.24 237.05Q205.55 237.89 206.20 238.34Q206.85 238.79 207.85 238.79Q208.70 238.79 209.24 238.46Q209.78 238.14 210.26 237.47L211.70 238.35ZM229.17 240L229.17 238.41Q228.36 239.22 227.38 239.77Q226.40 240.32 225.46 240.32Q224.39 240.32 223.72 239.91Q223.05 239.51 222.75 238.70Q222.45 237.89 222.45 236.45L222.45 229.30L224.20 229.30L224.20 235.61Q224.20 237.14 224.36 237.65Q224.52 238.16 224.87 238.39Q225.21 238.62 225.88 238.62Q226.54 238.62 227.44 238.11Q228.34 237.59 229.17 236.87L229.17 229.30L230.93 229.30L230.93 240L229.17 240ZM248.54 231.03Q248.25 230.91 247.72 230.91Q246.94 230.91 246.21 231.27Q245.48 231.63 244.51 232.60L244.51 240L242.75 240L242.75 229.30L244.51 229.30L244.51 231.03Q245.24 230.29 246.06 229.71Q246.87 229.13 247.86 229.13Q248.52 229.13 248.92 229.35L248.54 231.03ZM260.66 234.86Q260.66 236.98 261.39 237.88Q262.11 238.79 263.71 238.79Q264.43 238.79 264.97 238.48Q265.51 238.18 266.01 237.51L267.46 238.41Q266.85 239.33 265.97 239.82Q265.09 240.32 263.59 240.32Q261.20 240.32 260.03 238.93Q258.85 237.54 258.85 234.74Q258.85 231.80 260.00 230.39Q261.14 228.99 263.46 228.99Q265.54 228.99 266.58 230.19Q267.62 231.39 267.62 233.88L267.62 234.86L260.66 234.86M265.91 233.48Q265.89 232.04 265.30 231.25Q264.71 230.45 263.40 230.45Q262.14 230.45 261.52 231.17Q260.89 231.89 260.68 233.48L265.91 233.48Z" fill="#ffffff" style="fill: rgb(255, 255, 255);"></path></g><g id="SvgjsG1609" rel="mainfill" name="symbol" xmlns:name="symbol_mainfill" transform="translate(95.75146348676266,-2.94285586226743) scale(0.7357139655668575)" fill="#ffffff"><path fill="#ffffff" d="M91.329,87.359V35.071h4.491V28.25h-7.259L50.016,4l-37.53,24.25H4.932v6.821h4.491v52.289H5.47v6.82h3.953  h81.907H96v-6.82H91.329z M50.018,10.062L80.013,28.25H20.917L50.018,10.062z M84.86,91.147H16.605v-3.215h8.443v-2.762h8.623  v-3.116h34.485v3.116h8.981v2.762h7.723V91.147z M15.887,85.086V42.27h7.186v42.816H15.887z M36.721,52.879v-3.031h28.021v3.031  H36.721z M64.563,55.152v23.872H51.63V55.152H64.563z M49.834,55.152v23.872H36.902V55.152H49.834z M85.219,85.464h-6.465V42.27  h6.465V85.464z M87.555,39.618H12.833v-4.547h74.722V39.618z" style="fill: rgb(255, 255, 255);"></path><g fill="#ffffff"><path fill="#ffffff" d="M49.592,25.344c-1.709-0.101-3-0.804-3.838-1.76l0.822-1.055c0.653,0.737,1.675,1.424,3.016,1.575v-4.088   c-1.709-0.47-3.486-1.039-3.486-3.101c0-1.742,1.458-2.966,3.486-3.083v-1.542h1.021v1.559c1.392,0.134,2.48,0.67,3.302,1.524   l-0.838,1.022c-0.671-0.72-1.524-1.139-2.464-1.273v3.636c1.727,0.486,3.553,1.139,3.553,3.317c0,1.525-0.972,3.067-3.553,3.268   v1.491h-1.021V25.344z M49.592,18.49v-3.418c-1.208,0.083-2.045,0.771-2.045,1.76C47.547,17.77,48.452,18.155,49.592,18.49z    M50.613,20.3v3.804c1.592-0.168,2.111-1.123,2.111-1.91C52.725,21.105,51.787,20.652,50.613,20.3z" style="fill: rgb(255, 255, 255);"></path></g></g></svg>